<svg xmlns="http://www.w3.org/2000/svg" width="46" height="68" viewBox="0 0 46 68">
  <defs>
    <style>
      .cls-1 {
        fill: #ffe11b;
        stroke: #000;
        stroke-linejoin: round;
        stroke-width: 2px;
        fill-rule: evenodd;
      }
    </style>
  </defs>
  <path id="nav_tel.svg" class="cls-1" d="M516.314,33.432a3.636,3.636,0,1,1-3.632-3.466A3.552,3.552,0,0,1,516.314,33.432Zm10.263,0a3.636,3.636,0,1,1-3.633-3.466A3.552,3.552,0,0,1,526.577,33.432Zm10.262,0a3.636,3.636,0,1,1-3.632-3.466A3.552,3.552,0,0,1,536.839,33.432Zm-20.525,9.9a3.637,3.637,0,1,1-3.632-3.466A3.552,3.552,0,0,1,516.314,43.335Zm10.263,0a3.637,3.637,0,1,1-3.633-3.466A3.552,3.552,0,0,1,526.577,43.335Zm10.262,0a3.636,3.636,0,1,1-3.632-3.466A3.552,3.552,0,0,1,536.839,43.335Zm-20.525,9.9a3.637,3.637,0,1,1-3.632-3.466A3.552,3.552,0,0,1,516.314,53.237Zm10.263,0a3.637,3.637,0,1,1-3.633-3.466A3.552,3.552,0,0,1,526.577,53.237Zm0,9.9a3.637,3.637,0,1,1-3.633-3.466A3.552,3.552,0,0,1,526.577,63.14Zm12.651,19.152H506.859a3.164,3.164,0,0,1-3.21-3.115V24.907a3.164,3.164,0,0,1,3.21-3.115h32.369a3.164,3.164,0,0,1,3.21,3.115v54.27A3.164,3.164,0,0,1,539.228,82.291Zm0.958-55.83H505.8V75.615h34.387V26.461Zm-3.347,26.776a3.636,3.636,0,1,1-3.632-3.466A3.552,3.552,0,0,1,536.839,53.237Zm-10.5,26.742h-6.586a1.212,1.212,0,0,1-1.23-1.193h0a1.213,1.213,0,0,1,1.23-1.194h6.586a1.212,1.212,0,0,1,1.229,1.194h0A1.211,1.211,0,0,1,526.337,79.98Z" transform="translate(-500 -18)"/>
</svg>
