<svg xmlns="http://www.w3.org/2000/svg" width="57" height="61" viewBox="0 0 57 61">
  <defs>
    <style>
      .cls-1 {
        fill: #ffe11b;
        stroke: #000;
        stroke-linejoin: round;
        stroke-width: 2px;
        fill-rule: evenodd;
      }
    </style>
  </defs>
  <path id="nav_map.svg" class="cls-1" d="M631.609,38.39a1.9,1.9,0,0,0-1.806-.166l-12.446,5.322-0.788,1.587L616.04,46.2l-0.77,1.553-1.915,3.859V74.669l-11.455-4.9v-16l-1.914-3.856-1.915-3.856V69.773l-11.454,4.9V47.8l10.162-4.345-0.492-.991c-0.131-.206-0.266-0.462-0.4-0.719a12.526,12.526,0,0,1-.591-1.3l-0.179-.466-11.165,4.774a1.926,1.926,0,0,0-1.165,1.771V77.579a1.915,1.915,0,0,0,2.664,1.771l14.534-6.214L614.52,79.35c0.027,0.011.056,0.006,0.084,0.017a1.7,1.7,0,0,0,1.332,0c0.027-.011.057-0.006,0.084-0.017L631.3,72.816a1.927,1.927,0,0,0,1.164-1.771V39.995A1.927,1.927,0,0,0,631.609,38.39ZM617.184,47.8l11.455-4.9V69.773l-11.455,4.9V47.8ZM597.07,39.72h0l0.017,0.038a10.916,10.916,0,0,0,.606,1.22c0.11,0.206.189,0.431,0.312,0.629l0.071,0.143,1.915,3.856,1.914,3.857,3.585,7.221a1.8,1.8,0,0,0,3.22,0l4.451-8.967,0.2-.4,0.657-1.322,0.64-1.29,0.216-.436,1.321-2.66a10.691,10.691,0,0,0,.916-1.849l0.021-.038h-0.007a10.753,10.753,0,1,0-20.192-.508C596.981,39.378,597.009,39.556,597.07,39.72Zm4.711-3.608a5.343,5.343,0,1,1,.881,2.936A5.327,5.327,0,0,1,601.781,36.112Z" transform="translate(-579 -22)"/>
</svg>
