<svg id="nav1.svg" xmlns="http://www.w3.org/2000/svg" width="34.215" height="31.906" viewBox="0 0 34.215 31.906">
  <defs>
    <style>
      .cls-1 {
        fill: #ffd571;
      }

      .cls-1, .cls-2 {
        fill-rule: evenodd;
      }
    </style>
  </defs>
  <path id="シェイプ_18" data-name="シェイプ 18" class="cls-1" d="M1011,32c-0.68.581-14,23-14,23s28.51,0,29,0S1011.68,31.418,1011,32Z" transform="translate(-994.375 -25.844)"/>
  <path id="シェイプ_17" data-name="シェイプ 17" class="cls-2" d="M1028.34,55.356c-0.56-.839-13.82-20.583-14.87-22.006l-0.22-.3c-0.21-.278-0.39-0.53-0.58-0.763l2.02-2.494a0.917,0.917,0,0,0-.14-1.3,0.927,0.927,0,0,0-1.3.138l-1.57,1.938V26.754a0.92,0.92,0,1,0-1.84,0v3.832l-1.86-2.259a0.926,0.926,0,0,0-1.3-.127,0.909,0.909,0,0,0-.13,1.3l2.16,2.625c-0.26.379-.52,0.837-0.83,1.374q-0.21.383-.48,0.853c-0.94,1.629-3.42,5.658-6.05,9.925-2.766,4.493-5.627,9.139-6.779,11.139a1.534,1.534,0,0,0,1.32,2.3c2.517,0.025,5.109.032,7.719,0.032,2.63,0,5.28-.008,7.88-0.016,5.17-.016,10.52-0.033,15.56.016A1.532,1.532,0,0,0,1028.34,55.356Zm-16.86-.7-2.46.007V47.347h3.89v7.307Zm4.51-.012V45.812a1.538,1.538,0,0,0-1.54-1.536h-6.97a1.538,1.538,0,0,0-1.54,1.536v8.861c-2.47,0-4.93,0-7.345-.01,1.4-2.325,3.415-5.592,5.385-8.783,2.63-4.286,5.13-8.335,6.09-10,0.18-.322.35-0.614,0.5-0.877,0.04-.075.08-0.153,0.13-0.23a0.618,0.618,0,0,0,.07.1l0.22,0.3c0.73,0.981,8.2,12.079,13.17,19.481C1021.47,54.64,1018.72,54.641,1015.99,54.646Z" transform="translate(-994.375 -25.844)"/>
</svg>
