<svg id="nav3.svg" xmlns="http://www.w3.org/2000/svg" width="22.75" height="29.781" viewBox="0 0 22.75 29.781">
  <defs>
    <style>
      .cls-1, .cls-2 {
        fill-rule: evenodd;
      }

      .cls-2 {
        fill: #8ef3ff;
      }
    </style>
  </defs>
  <path id="シェイプ_16" data-name="シェイプ 16" class="cls-1" d="M1260.69,35.8a1.776,1.776,0,0,0-1.36-1.116c-5.87-.994-12.54-4.029-18.32-6.8a1.766,1.766,0,0,0-2.36.856l-0.03.1a1.848,1.848,0,0,0-.4,1.105c-0.03,5.983-.06,9.418-0.09,12.854s-0.06,6.88-.1,12.87a1.79,1.79,0,0,0,1.76,1.8h0.01a1.78,1.78,0,0,0,1.77-1.783c0.02-3.718.04-6.453,0.06-8.815a25,25,0,0,1,5.49-1.66c0.67-.157,1.36-0.317,2.05-0.487a21.831,21.831,0,0,0,11.27-7.182A1.809,1.809,0,0,0,1260.69,35.8Zm-12.35,5.45c-0.68.167-1.35,0.324-2.01,0.477a46.056,46.056,0,0,0-4.66,1.249V42.839c0.02-2.99.05-5.982,0.08-10.647a84.018,84.018,0,0,0,13.77,5.323A19.445,19.445,0,0,1,1248.34,41.248Z" transform="translate(-1238.03 -27.688)"/>
  <path id="シェイプ_19" data-name="シェイプ 19" class="cls-2" d="M1242,30c0.46,0,16.1,6.7,16,7s-9,5-9,5-8.69,3.631-8,3S1241.54,30,1242,30Z" transform="translate(-1238.03 -27.688)"/>
</svg>
