<svg id="nav4.svg" xmlns="http://www.w3.org/2000/svg" width="22.75" height="29.781" viewBox="0 0 22.75 29.781">
  <defs>
    <style>
      .cls-1, .cls-2 {
        fill-rule: evenodd;
      }

      .cls-2 {
        fill: #91ff8e;
      }
    </style>
  </defs>
  <path id="シェイプ_16" data-name="シェイプ 16" class="cls-1" d="M1387.49,35.8a1.762,1.762,0,0,0-1.35-1.116c-5.88-.994-12.54-4.029-18.33-6.8a1.755,1.755,0,0,0-2.35.856c-0.02.034-.02,0.07-0.04,0.1a1.777,1.777,0,0,0-.39,1.105c-0.03,5.983-.06,9.418-0.1,12.854s-0.06,6.88-.09,12.87a1.777,1.777,0,0,0,1.76,1.8h0.01a1.787,1.787,0,0,0,1.77-1.783c0.02-3.718.04-6.453,0.06-8.815a24.827,24.827,0,0,1,5.49-1.66c0.67-.157,1.36-0.317,2.05-0.487a21.846,21.846,0,0,0,11.26-7.182A1.809,1.809,0,0,0,1387.49,35.8Zm-12.35,5.45c-0.68.167-1.35,0.324-2.01,0.477a46.787,46.787,0,0,0-4.66,1.249V42.839c0.03-2.99.06-5.982,0.08-10.647a84.471,84.471,0,0,0,13.78,5.323A19.482,19.482,0,0,1,1375.14,41.248Z" transform="translate(-1364.84 -27.688)"/>
  <path id="シェイプ_19" data-name="シェイプ 19" class="cls-2" d="M1368,30c0.46,0,16.1,6.7,16,7s-9,5-9,5-8.69,3.631-8,3S1367.54,30,1368,30Z" transform="translate(-1364.84 -27.688)"/>
</svg>
