<svg id="nav5.svg" xmlns="http://www.w3.org/2000/svg" width="22.75" height="29.781" viewBox="0 0 22.75 29.781">
  <defs>
    <style>
      .cls-1, .cls-2 {
        fill-rule: evenodd;
      }

      .cls-2 {
        fill: #f8ff8e;
      }
    </style>
  </defs>
  <path id="シェイプ_16" data-name="シェイプ 16" class="cls-1" d="M1505.16,35.8a1.776,1.776,0,0,0-1.36-1.116c-5.87-.994-12.53-4.029-18.32-6.8a1.752,1.752,0,0,0-2.35.856,0.441,0.441,0,0,0-.04.1,1.777,1.777,0,0,0-.39,1.105c-0.04,5.983-.07,9.418-0.1,12.854s-0.06,6.88-.09,12.87a1.775,1.775,0,0,0,1.75,1.8h0.01a1.774,1.774,0,0,0,1.77-1.783c0.02-3.718.04-6.453,0.06-8.815a25,25,0,0,1,5.49-1.66c0.68-.157,1.36-0.317,2.05-0.487a21.831,21.831,0,0,0,11.27-7.182A1.809,1.809,0,0,0,1505.16,35.8Zm-12.35,5.45c-0.68.167-1.35,0.324-2.01,0.477a46.056,46.056,0,0,0-4.66,1.249V42.839c0.03-2.99.05-5.982,0.08-10.647a84.367,84.367,0,0,0,13.77,5.323A19.445,19.445,0,0,1,1492.81,41.248Z" transform="translate(-1482.5 -27.688)"/>
  <path id="シェイプ_19" data-name="シェイプ 19" class="cls-2" d="M1485,30c0.46,0,16.1,6.7,16,7s-9,5-9,5-8.69,3.631-8,3S1484.54,30,1485,30Z" transform="translate(-1482.5 -27.688)"/>
</svg>
