<?xml version="1.0" encoding="UTF-8"?> <svg xmlns="http://www.w3.org/2000/svg" xmlns:xlink="http://www.w3.org/1999/xlink" id="Layer_1" width="18.223" height="18.223" version="1.1" viewBox="0 0 18.223 18.223"><defs><style> .st0 { fill: none; } .st1 { clip-path: url(#clippath); } .st2 { fill: url(#_名称未設定グラデーション_23); } </style><clipPath id="clippath"><path class="st0" d="M12.885.063c-.972-.047-1.282-.057-3.756-.062-2.474-.005-2.785.005-3.757.048-.97.042-1.632.195-2.212.419-.6.231-1.109.542-1.616,1.047-.507.506-.82,1.013-1.054,1.612-.226.579-.382,1.241-.428,2.211C.017,6.31.006,6.62.001,9.094c-.005,2.474.005,2.784.048,3.757.042.969.195,1.632.419,2.211.232.6.542,1.109,1.047,1.616.505.507,1.013.82,1.612,1.054.579.226,1.241.381,2.21.428.972.046,1.282.057,3.757.062,2.474.005,2.784-.005,3.756-.048.97-.043,1.633-.195,2.212-.419.6-.232,1.109-.542,1.616-1.048.507-.505.82-1.013,1.054-1.612.227-.579.381-1.241.428-2.21.046-.972.057-1.283.062-3.757.005-2.474-.005-2.784-.048-3.756-.043-.97-.195-1.633-.419-2.213-.232-.6-.542-1.108-1.048-1.616-.505-.507-1.013-.82-1.612-1.054-.579-.227-1.241-.382-2.21-.428M12.779,16.534c-.961.042-1.249.051-3.681.046-2.433-.004-2.721-.015-3.682-.06-.887-.042-1.37-.192-1.69-.317-.425-.166-.728-.365-1.047-.683-.318-.32-.515-.623-.68-1.049-.124-.322-.271-.804-.31-1.693-.042-.961-.051-1.249-.046-3.682.004-2.432.015-2.72.061-3.681.042-.888.191-1.37.316-1.69.166-.426.364-.728.684-1.047.319-.319.623-.515,1.049-.68.321-.124.804-.271,1.692-.31.961-.042,1.249-.051,3.682-.046,2.432.005,2.72.014,3.681.06.888.042,1.37.191,1.691.317.425.166.728.364,1.047.683.318.32.515.623.68,1.049.123.321.272.804.31,1.692.042.961.051,1.249.046,3.682-.004,2.433-.015,2.721-.06,3.681-.042.888-.192,1.37-.317,1.692-.166.425-.364.728-.683,1.046-.32.317-.623.515-1.049.68-.321.124-.804.271-1.692.31M5.351,4.241c.001-.603-.487-1.094-1.091-1.095s-1.094.488-1.096,1.091c0,.603.488,1.094,1.091,1.095.603.001,1.094-.487,1.095-1.091M13.79,9.12c.005-2.583-2.086-4.682-4.669-4.687-2.584-.005-4.683,2.086-4.688,4.669-.005,2.584,2.086,4.682,4.67,4.687,2.583.005,4.682-2.085,4.687-4.669M12.149,9.117c-.003,1.677-1.366,3.035-3.043,3.031-1.677-.003-3.035-1.365-3.032-3.043.003-1.677,1.366-3.034,3.043-3.031,1.677.003,3.034,1.365,3.031,3.043"></path></clipPath><radialGradient id="_名称未設定グラデーション_23" data-name="名称未設定グラデーション 23" cx="-.031" cy="18.809" fx="-.031" fy="18.809" r="27.54" gradientTransform="translate(0 6.887) scale(1 .634)" gradientUnits="userSpaceOnUse"><stop offset="0" stop-color="#fac20e"></stop><stop offset=".085" stop-color="#fabe0e"></stop><stop offset=".162" stop-color="#fab311"></stop><stop offset=".237" stop-color="#fba015"></stop><stop offset=".31" stop-color="#fc861a"></stop><stop offset=".381" stop-color="#fd6521"></stop><stop offset=".441" stop-color="#ff4329"></stop><stop offset=".69" stop-color="#eb029a"></stop><stop offset="1" stop-color="#a20df9"></stop></radialGradient></defs><g class="st1"><rect class="st2" x="-.863" y="-.981" width="19.875" height="19.875"></rect></g></svg> 