<?xml version="1.0" encoding="UTF-8"?> <svg xmlns="http://www.w3.org/2000/svg" id="LINE_LOGO" width="320" height="320" version="1.1" viewBox="0 0 320 320"><defs><style> .st0 { fill: #06c755; } .st1 { fill: #fff; } </style></defs><rect class="st0" width="320" height="320" rx="72.14" ry="72.14"></rect><g><path class="st1" d="M266.656,144.924c0-47.739-47.859-86.579-106.689-86.579s-106.688,38.84-106.688,86.579c0,42.799,37.955,78.642,89.225,85.418,3.474.751,8.204,2.291,9.399,5.261,1.076,2.696.704,6.922.345,9.647,0,0-1.252,7.528-1.523,9.133-.465,2.696-2.145,10.549,9.241,5.752,11.388-4.798,61.441-36.179,83.824-61.941h-.005c15.461-16.957,22.869-34.164,22.869-53.27Z"></path><g><path class="st0" d="M231.163,172.49h-29.974c-1.125,0-2.037-.912-2.037-2.037v-46.561c0-1.125.912-2.037,2.037-2.037h29.974c1.121,0,2.037.916,2.037,2.037v7.566c0,1.125-.912,2.037-2.037,2.037h-20.37v7.857h20.37c1.121,0,2.037.917,2.037,2.037v7.566c0,1.125-.912,2.037-2.037,2.037h-20.37v7.857h20.37c1.121,0,2.037.917,2.037,2.037v7.566c0,1.125-.912,2.037-2.037,2.037Z"></path><path class="st0" d="M120.289,172.49c1.125,0,2.037-.912,2.037-2.037v-7.566c0-1.12-.917-2.037-2.037-2.037h-20.371v-36.958c0-1.121-.917-2.037-2.037-2.037h-7.566c-1.125,0-2.037.912-2.037,2.037v46.561c0,1.125.912,2.037,2.037,2.037h29.974Z"></path><rect class="st0" x="128.73" y="121.855" width="11.64" height="50.635" rx="2.037" ry="2.037"></rect><path class="st0" d="M189.842,121.855h-7.566c-1.125,0-2.037.912-2.037,2.037v27.655l-21.303-28.769c-.049-.074-.105-.144-.164-.211-.004-.005-.009-.01-.013-.015-.039-.044-.08-.086-.123-.127-.013-.012-.026-.023-.038-.035-.036-.032-.073-.064-.111-.093-.018-.014-.037-.027-.055-.041-.035-.026-.071-.05-.108-.074-.021-.013-.041-.026-.062-.038-.037-.022-.074-.043-.112-.062-.021-.011-.043-.021-.065-.031-.039-.018-.079-.035-.119-.051-.022-.008-.044-.016-.066-.024-.041-.014-.082-.028-.124-.04-.024-.007-.048-.013-.072-.018-.04-.01-.08-.019-.121-.026-.029-.005-.058-.009-.087-.013-.037-.005-.073-.01-.11-.014-.036-.003-.072-.004-.109-.005-.023,0-.046-.004-.07-.004h-7.525c-1.125,0-2.037.912-2.037,2.037v46.562c0,1.125.912,2.037,2.037,2.037h7.566c1.125,0,2.037-.912,2.037-2.037v-27.646l21.33,28.806c.147.208.326.378.525.513.008.006.016.011.024.016.041.028.085.053.128.078.019.011.039.022.059.033.032.017.065.033.099.048.033.015.066.03.1.043.021.008.043.016.065.024.046.016.093.032.14.045.009.003.019.005.029.008.17.045.348.071.532.071h7.525c1.125,0,2.037-.912,2.037-2.037v-46.562c0-1.125-.912-2.037-2.037-2.037Z"></path></g></g></svg> 