<?xml version="1.0" encoding="UTF-8"?> <svg xmlns="http://www.w3.org/2000/svg" id="_レイヤー_2" width="88.619" height="88.215" viewBox="0 0 88.619 88.215"><defs><style>.cls-1{fill:#93bf69;}</style></defs><g id="_レイヤー_1-2"><path class="cls-1" d="M67.689,70.757l-.008.008c-1.286-.008-2.338,1.05-2.346,2.357l-.047,9.483c0,.491-.384.873-.874.873l-58.918.004c-.459,0-.831-.378-.831-.845V5.617c0-.467.372-.845.831-.845h33.824c.673,0,1.278.032,1.867.08,2.939,2.892,5.333,6.23,5.23,10.577v3.081c0,3.077,2.465,5.578,5.491,5.578h3.046c4.245-.109,7.564,2.333,10.385,5.309.028.438.067.873.075,1.323.123,3.093,4.676,3.028,4.664-.088-.222-15.593-12.296-28.896-27.506-30.421C42.381.014,6.844-.034,5.495.022,2.465.022,0,2.527,0,5.608v77.021c0,3.081,2.465,5.586,5.495,5.586h58.922c3.054,0,5.543-2.518,5.543-5.602l.047-9.471c.008-1.311-1.032-2.377-2.318-2.385ZM63.718,21.872c-3.426-2.295-7.768-2.697-11.815-2.516-.455,0-.827-.378-.827-.837v-3.081c0-3.185-.866-6.254-2.465-8.912,6.929,2.69,12.459,8.306,15.106,15.346Z"></path><path class="cls-1" d="M15.951,21.201h23.685c3.058-.052,3.07-4.689,0-4.742H15.951c-3.058.052-3.07,4.689,0,4.742Z"></path><path class="cls-1" d="M54.147,29.112h-25.141c-3.058.052-3.07,4.689,0,4.742h25.141c3.058-.052,3.07-4.689,0-4.742Z"></path><path class="cls-1" d="M15.943,33.849v.004h3.731c1.286,0,2.334-1.062,2.334-2.373s-1.044-2.373-2.334-2.373h-3.731c-3.066.052-3.066,4.689,0,4.742Z"></path><path class="cls-1" d="M51.706,46.498h2.441c3.066-.052,3.066-4.689,0-4.742h-2.441c-3.066.052-3.066,4.689,0,4.742Z"></path><path class="cls-1" d="M42.374,41.756H15.943c-3.058.052-3.07,4.689,0,4.742h26.431c3.058-.052,3.07-4.689,0-4.742Z"></path><path class="cls-1" d="M44.399,56.786c0-1.307-1.044-2.373-2.334-2.373H15.951c-1.286,0-2.334,1.062-2.334,2.373s1.044,2.373,2.334,2.373h26.114c1.286,0,2.334-1.062,2.334-2.373Z"></path><path class="cls-1" d="M15.951,67.057c-3.058.052-3.07,4.689,0,4.742h19.535c3.058-.052,3.07-4.689,0-4.742H15.951Z"></path><path class="cls-1" d="M86.298,33l-.004-.003c-3.109-3.141-8.161-3.137-11.259.012l-28.417,28.904c-1.203,1.255-2.014,2.538-2.615,4.13l-3.153,8.51c-1.147,2.775,1.844,5.828,4.569,4.657l8.367-3.201c1.555-.603,2.872-1.456,4.075-2.662l19.171-19.473c2.128-2.24-1.088-5.522-3.299-3.354l-18.91,19.212-4.648-4.726,23.855-24.251,6.259,6.362c.807.937,2.429.985,3.295.072.047-.024.071-.072.115-.105l2.595-2.618c3.098-2.984,3.102-8.454.004-11.466ZM50.621,72.157l-4.542,1.737,1.709-4.617,2.833,2.88ZM83.006,41.093l-1.025,1.038-4.656-4.734,1.017-1.038c1.281-1.302,3.376-1.299,4.662-.002,1.272,1.239,1.279,3.505.002,4.735Z"></path></g></svg> 