<?xml version="1.0" encoding="UTF-8"?> <svg xmlns="http://www.w3.org/2000/svg" id="_レイヤー_2" width="88.597" height="88.392" viewBox="0 0 88.597 88.392"><defs><style>.cls-1{fill:#93bf69;}</style></defs><g id="_レイヤー_1-2"><path class="cls-1" d="M9.859,16.542h14.936v-7.366c0-2.527,1.011-4.822,2.639-6.483,1.639-1.658,3.888-2.693,6.354-2.693h21.021c2.381,0,4.555.963,6.173,2.523l.181.17c1.628,1.662,2.639,3.956,2.639,6.483v7.366h15.737c2.494,0,4.761,1.039,6.4,2.715,1.639,1.672,2.657,3.985,2.657,6.53v45.515c0,2.537-1.018,4.847-2.664,6.527s-3.91,2.718-6.397,2.718H9.061c-2.494,0-4.761-1.039-6.4-2.711-1.643-1.676-2.661-3.985-2.661-6.53V26.609c0-2.762,1.11-5.274,2.898-7.102,1.792-1.824,4.254-2.957,6.961-2.957v-.007ZM67.534,88.392c-1.504,0-2.725-1.245-2.725-2.78s1.22-2.78,2.725-2.78h5.648c1.504,0,2.725,1.245,2.725,2.78s-1.22,2.78-2.725,2.78h-5.648ZM15.411,88.392c-1.504,0-2.725-1.245-2.725-2.78s1.22-2.78,2.725-2.78h5.648c1.504,0,2.725,1.245,2.725,2.78s-1.22,2.78-2.725,2.78h-5.648ZM64.437,29.733h1.887v-7.627H22.268v7.627h1.887c1.504,0,2.725,1.245,2.725,2.78v18.968c0,1.535-1.22,2.78-2.725,2.78h-1.887v20.723h44.055v-20.723h-1.887c-1.504,0-2.725-1.245-2.725-2.78v-18.968c0-1.535,1.22-2.78,2.725-2.78ZM71.773,29.733h1.887c1.504,0,2.725,1.245,2.725,2.78v18.968c0,1.535-1.22,2.78-2.725,2.78h-1.887v20.723h7.762c.993,0,1.898-.413,2.554-1.079.653-.67,1.057-1.593,1.057-2.606V25.784c0-1.01-.408-1.929-1.061-2.599-.656-.67-1.557-1.086-2.547-1.086h-7.762v7.627l-.004.007ZM14.932,29.733h1.887v-7.627h-6.961c-1.213,0-2.317.507-3.118,1.318-.795.818-1.291,1.944-1.291,3.182v44.697c0,1.01.408,1.929,1.064,2.599.653.666,1.557,1.082,2.547,1.082h7.759v-20.723h-1.887c-1.504,0-2.725-1.245-2.725-2.78v-18.968c0-1.535,1.22-2.78,2.725-2.78h0ZM30.243,16.546h28.101v-7.366c0-.988-.401-1.897-1.043-2.552l-.106-.116c-.628-.586-1.469-.948-2.395-.948h-21.021c-.976,0-1.866.405-2.501,1.053-.642.666-1.043,1.571-1.043,2.563v7.366h.008Z"></path></g></svg> 