<?xml version="1.0" encoding="UTF-8"?> <svg xmlns="http://www.w3.org/2000/svg" id="_レイヤー_2" width="87.182" height="87.182" viewBox="0 0 87.182 87.182"><defs><style>.cls-1{fill:#93bf69;fill-rule:evenodd;}</style></defs><g id="_レイヤー_1-2"><path class="cls-1" d="M41.315.058c25.854-1.317,47.125,19.954,45.808,45.808-1.128,22.14-19.117,40.13-41.257,41.257C20.012,88.441-1.259,67.17.058,41.316,1.186,19.175,19.175,1.186,41.315.058ZM14.399,18.204c-5.485,6.302-8.967,14.395-9.446,23.279h4.205c1.353,0,2.449,1.097,2.449,2.449h0c0,1.353-1.097,2.449-2.449,2.449h-4.162c.629,8.787,4.194,16.765,9.723,22.959l2.793-2.793c.957-.957,2.507-.957,3.464,0h0c.957.957.957,2.507,0,3.464l-2.771,2.771c6.219,5.413,14.186,8.877,22.937,9.424v-3.841c0-1.353,1.097-2.449,2.449-2.449h0c1.353,0,2.449,1.097,2.449,2.449v3.841c8.751-.547,16.714-4.011,22.937-9.424l-2.771-2.771c-.957-.957-.957-2.507,0-3.464h0c.957-.957,2.507-.957,3.464,0l2.793,2.793c5.528-6.19,9.097-14.172,9.723-22.959h-4.162c-1.353,0-2.449-1.097-2.449-2.449h0c0-1.353,1.097-2.449,2.449-2.449h4.205c-.478-8.884-3.96-16.978-9.446-23.279l-3.113,3.113c-.957.957-2.507.957-3.464,0h0c-.957-.957-.957-2.507,0-3.464l3.135-3.135c-6.273-5.6-14.38-9.187-23.301-9.748v4.525c0,1.353-1.097,2.449-2.449,2.449h0c-1.353,0-2.449-1.097-2.449-2.449v-4.525c-8.92.558-17.028,4.147-23.301,9.748l3.135,3.135c.956.956.956,2.507,0,3.464h0c-.957.957-2.507.956-3.464,0l-3.113-3.113ZM43.591,18.805h0c1.353,0,2.449,1.097,2.449,2.449v25.818l14.756,15.731c.925.986.876,2.536-.11,3.462h0c-.986.926-2.537.877-3.462-.11l-16.082-17.141v-27.76c0-1.353,1.096-2.449,2.449-2.449Z"></path></g></svg> 