<?xml version="1.0" encoding="UTF-8"?> <svg xmlns="http://www.w3.org/2000/svg" id="_レイヤー_2" width="88.439" height="88.408" viewBox="0 0 88.439 88.408"><defs><style>.cls-1{fill:#93bf69;}</style></defs><g id="_レイヤー_1-2"><path class="cls-1" d="M59.082,40.842h-3.581c-.988,0-1.79.789-1.79,1.762v16.885l-5.28-5.195c-3.022-2.975-7.122-4.645-11.396-4.645h-2.659c3.6-2.927,5.899-7.353,5.899-12.297,0-8.793-7.271-15.948-16.208-15.948s-16.208,7.154-16.208,15.948c0,5.038,2.393,9.53,6.112,12.455-7.885,1.033-13.972,7.658-13.972,15.699v15.857c0,1.869.754,3.661,2.098,4.984,1.343,1.321,3.164,2.063,5.063,2.063,7.894,0,22.543-.002,30.436-.002,3.955,0,7.162-3.155,7.162-7.047v-9.039l6.155,4.036c1.47.965,3.198,1.48,4.965,1.48h3.203c4.943,0,8.952-3.944,8.952-8.808v-19.378c0-2.336-.944-4.577-2.621-6.229-1.679-1.651-3.957-2.579-6.331-2.579ZM11.795,37.351c0-6.658,5.506-12.076,12.273-12.076s12.273,5.417,12.273,12.076-5.506,12.076-12.273,12.076-12.273-5.417-12.273-12.076ZM25.065,81.36c0,.934-.378,1.83-1.049,2.491s-1.583,1.032-2.532,1.032v-7.047h3.581v3.523ZM64.454,69.028c0,2.919-2.404,5.285-5.371,5.285h-3.203c-1.06,0-2.097-.308-2.979-.888-3.06-2.007-8.938-5.863-8.938-5.863-.55-.361-1.257-.395-1.839-.088s-.945.904-.945,1.554v12.331c0,1.947-1.602,3.523-3.581,3.523h-9.912c.623-1.061.96-2.276.96-3.523v-5.285c0-.972-.802-1.762-1.79-1.762h-12.533v-8.808c0-.972-.802-1.762-1.79-1.762s-1.79.789-1.79,1.762v10.57c0,.972.802,1.762,1.79,1.762h5.371v7.048H7.162c-.949,0-1.86-.372-2.532-1.032-.671-.661-1.049-1.557-1.049-2.491v-15.857c0-6.811,5.611-12.332,12.533-12.332,1.945,0,3.973,0,6.004-.001.641.076,1.289.127,1.951.127s1.311-.051,1.953-.127c4.095,0,7.993,0,11.015,0,3.325,0,6.512,1.3,8.862,3.613l8.338,8.204c.512.504,1.282.655,1.952.382.668-.273,1.105-.916,1.105-1.628v-8.808h7.162v14.093ZM64.454,51.412h-7.162v-7.047h1.79c1.425,0,2.791.557,3.797,1.548,1.008.99,1.574,2.334,1.574,3.736v1.762Z"></path><path class="cls-1" d="M79.487,0h-32.222c-4.943,0-8.952,3.943-8.952,8.808v12.331c0,2.336.943,4.577,2.622,6.229,1.679,1.651,3.956,2.58,6.33,2.58h1.787v8.809c0,.713.434,1.355,1.105,1.627.667.273,1.437.122,1.949-.382l10.218-10.054h17.163c4.943,0,8.952-3.943,8.952-8.808v-12.331c0-4.865-4.009-8.808-8.952-8.808ZM84.858,21.139c0,2.92-2.405,5.285-5.371,5.285h-17.905c-.475,0-.928.186-1.266.516l-7.686,7.563v-6.318c0-.973-.801-1.762-1.787-1.762h-3.578c-1.424,0-2.79-.557-3.798-1.547-1.008-.992-1.573-2.336-1.573-3.738v-12.331c0-2.92,2.405-5.285,5.371-5.285h32.222c2.967,0,5.371,2.365,5.371,5.285v12.331Z"></path></g></svg> 