<?xml version="1.0" encoding="UTF-8"?> <svg xmlns="http://www.w3.org/2000/svg" id="_レイヤー_2" width="88.424" height="61.991" viewBox="0 0 88.424 61.991"><defs><style>.cls-1{fill:#93bf69;}</style></defs><g id="_レイヤー_1-2"><path class="cls-1" d="M17.588,56.841c.535,0,1.077-.103,1.594-.318,1.834-.763,2.882-2.731,2.492-4.678-.387-1.948-2.107-3.36-4.094-3.36h-.008c-1.117,0-2.166.436-2.951,1.225-1.403,1.407-1.619,3.627-.514,5.277.793,1.187,2.117,1.855,3.481,1.855ZM18.54,52.664c0,.455-.324.85-.768.94-.442.089-.898-.151-1.072-.569-.175-.422-.029-.912.347-1.165.162-.109.349-.163.536-.163.246,0,.49.094.676.275.179.18.281.428.281.683Z"></path><path class="cls-1" d="M38.151,32.417h-2.577c-.884.005-1.603.726-1.603,1.608s.719,1.604,1.603,1.609h2.579c.882-.005,1.599-.726,1.599-1.609s-.717-1.603-1.601-1.608Z"></path><path class="cls-1" d="M21.86,15.431h-11.68c-2.771.008-5.03,2.266-5.038,5.035v15.911c.008,2.772,2.267,5.031,5.038,5.035h11.68c2.772-.004,5.031-2.263,5.034-5.036v-15.911c-.004-2.772-2.263-5.031-5.035-5.035ZM8.358,33.054v-12.587c0-.479.195-.948.534-1.286.342-.339.812-.533,1.289-.533h11.68c.477,0,.947.194,1.288.532.34.339.534.809.534,1.287v12.587h-15.324ZM23.683,36.376c-.003,1.002-.821,1.82-1.822,1.824h-11.678c-1.003-.003-1.821-.821-1.824-1.823v-.111h15.324v.11Z"></path><path class="cls-1" d="M75.381,30.554c-.018-.032-.036-.064-.056-.095l-1.69-2.913c-.032-.066-.071-.132-.118-.194l-6.433-11.11c-.23-.403-.621-.681-1.066-.773l-5.439-.036c-2.77.008-5.03,2.267-5.038,5.036v15.911c.008,2.772,2.268,5.031,5.039,5.035h9.949c2.772-.004,5.031-2.263,5.035-5.036v-5.069c.002-.138-.014-.273-.048-.404h.068l-.203-.35ZM58.757,26.638v-6.172c0-.478.195-.947.535-1.287.341-.338.81-.532,1.288-.532h4.193l4.628,7.991h-10.645ZM72.35,31.73v4.646c-.003,1.002-.821,1.82-1.822,1.824h-9.948c-1.002-.003-1.821-.821-1.823-1.823v-6.526h12.506l1.088,1.879Z"></path><path class="cls-1" d="M81.673,28.317h-1.648l-8.985-15.515c-.434-.761-1.069-1.4-1.837-1.849-.29-.167-.595-.304-.911-.407v-3.222c-.008-4.028-3.292-7.313-7.322-7.325H5.894C2.647.008.003,2.652,0,5.895v43.34c.008,2.77,2.266,5.03,5.035,5.038h3.355c.778,4.417,4.679,7.714,9.187,7.714s8.409-3.297,9.183-7.714h33.981c.772,4.419,4.669,7.718,9.18,7.718s8.409-3.298,9.183-7.718h4.285c2.776-.004,5.034-2.265,5.034-5.039v-14.167c-.003-3.719-3.032-6.747-6.751-6.75ZM66.54,47.598c1.03-.69,2.211-1.028,3.387-1.028,1.574,0,3.139.605,4.314,1.778l.225-.225-.225.225c1.14,1.133,1.792,2.706,1.789,4.315,0,2.898-2.064,5.412-4.907,5.98-2.84.565-5.712-.968-6.821-3.645-1.112-2.677-.171-5.789,2.237-7.401ZM81.673,33.463c-.425,0-.828.165-1.135.467-.303.304-.47.707-.47,1.137v6.452c0,1.345.524,2.61,1.477,3.562.936.936,2.233,1.473,3.559,1.473h.107v2.679c0,.488-.189.945-.532,1.287-.345.345-.803.535-1.29.535h-4.284c-.775-4.419-4.674-7.718-9.183-7.718s-8.408,3.298-9.18,7.718h-7.131V13.501h13.078c.286-.003.646.076.915.225.276.164.504.398.661.683l9.393,16.22c.27.553.823.899,1.441.904h2.573c1.335.003,2.549.762,3.151,1.93h-3.15ZM83.281,41.519v-4.844h1.93v6.667h-.106c-1.002-.003-1.821-.821-1.824-1.823ZM3.212,5.896c.007-1.471,1.211-2.673,2.683-2.68h5.396v.963c0,2.305,1.872,4.18,4.172,4.18h37.366c2.303,0,4.176-1.875,4.176-4.18v-.963h3.966c2.262.003,4.106,1.847,4.109,4.109v2.964H3.212v-4.393ZM53.792,4.177c-.003.532-.436.966-.964.969H15.462c-.257,0-.499-.1-.68-.283s-.281-.425-.28-.684v-.963h39.289v.961ZM14.181,47.583c1.031-.688,2.211-1.024,3.387-1.024,1.581,0,3.151.609,4.329,1.789l.225-.225-.225.225c1.137,1.135,1.789,2.708,1.786,4.316,0,2.907-2.068,5.426-4.917,5.991-2.85.568-5.722-.97-6.836-3.656-1.112-2.684-.165-5.802,2.252-7.416ZM43.433,15.431h-9.57c-2.771.008-5.03,2.266-5.038,5.035v30.59h-2.065c-.775-4.417-4.674-7.714-9.183-7.714s-8.408,3.297-9.187,7.714h-3.354c-1.002-.003-1.821-.821-1.824-1.823V13.501h47.186v37.555h-1.93v-30.591c-.008-2.769-2.267-5.027-5.035-5.034ZM32.042,20.466c0-.478.195-.947.534-1.286.342-.339.812-.533,1.289-.533h9.568c1.002.003,1.821.82,1.823,1.819v30.59h-13.213v-30.59Z"></path><path class="cls-1" d="M64.862,32.417h-2.573c-.882.005-1.599.726-1.599,1.609s.717,1.603,1.599,1.608h2.586c.421,0,.831-.17,1.128-.467.301-.301.474-.717.474-1.141,0-.428-.169-.832-.472-1.136-.301-.305-.707-.473-1.143-.473Z"></path><path class="cls-1" d="M69.935,56.857c.538,0,1.082-.104,1.601-.32,1.839-.763,2.89-2.736,2.499-4.69-.394-1.95-2.12-3.362-4.106-3.362-.006,0-.015,0-.021,0-1.093,0-2.164.446-2.939,1.224-1.408,1.41-1.627,3.635-.519,5.292.794,1.188,2.12,1.857,3.485,1.857ZM70.887,52.664c0,.455-.324.85-.77.94-.449.093-.894-.15-1.071-.569-.175-.422-.029-.912.347-1.165.162-.109.349-.163.536-.163.246,0,.49.094.676.275.179.18.281.428.281.683Z"></path></g></svg> 