<?xml version="1.0" encoding="UTF-8"?> <svg xmlns="http://www.w3.org/2000/svg" id="_レイヤー_2" width="47.554" height="86.331" viewBox="0 0 47.554 86.331"><defs><style>.cls-1{fill:#ff5318;}</style></defs><g id="_レイヤー_1-2"><path class="cls-1" d="M46.471,19.042l-14.172-12.111c-1.302-1.11-3.252-.958-4.362.341-.496.583-.742,1.297-.742,2.008,0,.874.37,1.741,1.085,2.352l7.869,6.705-22.15.003c-2.051.027-3.726,1.187-4.359,2.953L.184,47.666c-.584,1.636.269,3.435,1.903,4.021,1.636.586,3.435-.269,4.026-1.899l3.863-10.8.056-.328-.029,43.728c0,2.178,1.764,3.944,3.942,3.944s3.94-1.766,3.94-3.944v-30.364h4.31v30.25c0,2.176,1.764,3.939,3.945,3.939s3.939-1.764,3.939-3.939l.048-57.787h14.336c1.294,0,2.452-.808,2.9-2.022.45-1.216.092-2.581-.891-3.423Z"></path><path class="cls-1" d="M22.3,9.21v.435c0,.564-.218,1.054-.651,1.466-.435.413-.964.619-1.587.619s-1.159-.206-1.611-.619c-.451-.412-.669-.908-.652-1.489l.025-1.054c.016-1.039.483-1.717,1.402-2.038.163-.06.622-.161,1.377-.298.034-.015.079-.03.135-.046.058-.015.094-.022.111-.022.393-.183.639-.465.737-.848.115-.504-.041-.893-.468-1.168-.427-.276-.919-.382-1.475-.321-.459.046-.926.245-1.402.596-.394.29-.787.589-1.181.893-.476.29-.968.382-1.475.275-.952-.198-1.426-.771-1.426-1.718,0-1.313.909-2.39,2.73-3.23.918-.428,1.935-.641,3.049-.641.41,0,.82.031,1.229.092,2.804.413,4.46,1.65,4.968,3.711.099.382.147.755.147,1.121,0,.978-.31,1.838-.933,2.577-.623.742-1.494,1.272-2.608,1.593-.095.033-.243.071-.44.116Z"></path><path class="cls-1" d="M17.53,14.962c0-.657.243-1.218.726-1.685.483-.465,1.078-.691,1.784-.675.704.016,1.298.252,1.783.711.483.459.725,1.008.725,1.651,0,.656-.247,1.206-.738,1.649-.491.442-1.081.665-1.77.665s-1.279-.23-1.771-.687c-.493-.459-.739-1.001-.739-1.627Z"></path></g></svg> 