<?xml version="1.0" encoding="UTF-8"?> <svg xmlns="http://www.w3.org/2000/svg" id="_レイヤー_2" width="55.11" height="87.5" viewBox="0 0 55.11 87.5"><defs><style>.cls-1{fill:#ff5318;}</style></defs><g id="_レイヤー_1-2"><path class="cls-1" d="M13.499,53.609c-1.141.469-1.875,1.594-1.875,2.844s.734,2.359,1.875,2.844c2.422,1.016,6.844,2.234,14.078,2.234s11.656-1.219,14.078-2.234c1.141-.469,1.875-1.594,1.875-2.844s-.734-2.359-1.875-2.844c-2.422-1.016-6.844-2.234-14.078-2.234s-11.656,1.219-14.078,2.234ZM27.577,58.515c-7.109,0-11.172-1.266-12.953-2.109,1.781-.75,5.844-2,12.953-2s11.172,1.25,12.953,2.109c-1.781.734-5.844,2-12.953,2Z"></path><path class="cls-1" d="M27.577,43.828c6.953,0,12.828-8.125,12.828-17.75s-5.875-17.75-12.828-17.75-12.828,8.125-12.828,17.75,5.875,17.75,12.828,17.75ZM27.577,11.328c5.25,0,9.859,6.891,9.859,14.734s-4.609,14.734-9.859,14.734-9.859-6.891-9.859-14.734,4.609-14.734,9.859-14.734Z"></path><path class="cls-1" d="M48.421,6.719h-6.828c-.359-.391-.719-.781-.734-.797-3.719-3.812-8.438-5.922-13.281-5.922s-9.562,2.109-13.312,5.938c0,0-.359.391-.719.781h-6.828c-3.703,0-6.719,3.078-6.719,6.844v29.781c0,3.781,3.016,6.844,6.719,6.844h1.75c-2.766,1.797-4.312,4.109-4.391,6.734q0,.016-.016.031c-.625,5.062.812,9.766,4.125,13.594,2,2.312,4.516,4.109,7.172,5.453v6.844c0,2.578,2.344,4.656,5.219,4.656h13.953c2.875,0,5.219-2.094,5.219-4.656v-6.844c2.656-1.344,5.172-3.141,7.172-5.453,3.312-3.828,4.734-8.531,4.125-13.594q0-.016-.016-.031c-.078-2.625-1.609-4.938-4.391-6.734h1.75c3.703,0,6.719-3.078,6.719-6.844V13.563c.031-3.781-2.984-6.844-6.688-6.844h0ZM27.577,3.016c4.047,0,8.031,1.781,11.172,5.016,0,0,.734.766,1.062,1.172,3.672,4.375,5.766,10.547,5.766,16.953,0,8.656-3.688,16.438-9.641,20.469-2.578-.391-5.359-.594-8.375-.594-3,0-5.797.203-8.375.594-5.953-4.031-9.641-11.828-9.641-20.469,0-6.406,2.094-12.594,5.766-16.953.328-.391,1.047-1.156,1.047-1.156,3.188-3.25,7.172-5.031,11.219-5.031h0ZM2.968,43.344V13.563c0-2.109,1.688-3.828,3.75-3.828h4.547c-3.016,4.625-4.656,10.344-4.656,16.422,0,8.406,3.188,16.125,8.484,21.016H6.734c-2.078,0-3.766-1.719-3.766-3.828h0ZM36.812,82.844c0,.891-1.031,1.641-2.266,1.641h-13.953c-1.219,0-2.266-.75-2.266-1.641v-5.562c3.219,1.188,6.469,1.781,9.234,1.781s6.031-.594,9.234-1.781v5.562h.015ZM44.734,68.563c-4.453,5.141-12.016,7.484-17.156,7.484s-12.703-2.344-17.156-7.484c-1.359-1.578-2.328-3.281-2.906-5.125,3.906,3.031,10.953,4.812,20.047,4.812s16.141-1.781,20.047-4.812c-.547,1.828-1.516,3.547-2.875,5.125h0ZM48.109,57.141c0,4.766-8.453,8.094-20.531,8.094s-20.531-3.328-20.531-8.094c0-2.953,3.516-5.547,9.406-6.938,3.219-.766,6.969-1.156,11.141-1.156s7.922.391,11.141,1.156c5.875,1.406,9.375,3.984,9.375,6.938h-.001ZM52.187,43.344c0,2.109-1.688,3.828-3.75,3.828h-8.359c5.297-4.891,8.484-12.594,8.484-21.016,0-6.078-1.656-11.797-4.656-16.422h4.547c2.078,0,3.75,1.719,3.75,3.828v29.781h-.016Z"></path></g></svg> 