<?xml version="1.0" encoding="UTF-8"?> <svg xmlns="http://www.w3.org/2000/svg" id="_レイヤー_2" width="66.885" height="86.337" viewBox="0 0 66.885 86.337"><defs><style>.cls-1{fill:#ff5318;}</style></defs><g id="_レイヤー_1-2"><path class="cls-1" d="M48.716,6.409h15.994c1.202,0,2.175.973,2.175,2.175v75.578c0,1.202-.973,2.175-2.175,2.175H2.175c-1.202,0-2.175-.973-2.175-2.175V8.583c0-1.202.973-2.175,2.175-2.175h15.994V2.175c0-1.202.973-2.175,2.175-2.175h26.197c1.202,0,2.175.973,2.175,2.175v4.234ZM33.047,68.069c-1.202,0-2.175-.973-2.175-2.175s.973-2.175,2.175-2.175h20.634c1.202,0,2.175.973,2.175,2.175s-.973,2.175-2.175,2.175h-20.634ZM11.664,67.416c-.851-.851-.851-2.227,0-3.075.851-.851,2.227-.851,3.075,0l2.457,2.457,6.426-6.423c.851-.851,2.227-.851,3.075,0,.851.851.851,2.227,0,3.075l-7.962,7.962c-.851.851-2.227.851-3.075,0l-3.996-3.996h0ZM33.047,52.026c-1.202,0-2.175-.973-2.175-2.175s.973-2.175,2.175-2.175h20.634c1.202,0,2.175.973,2.175,2.175s-.973,2.175-2.175,2.175h-20.634ZM11.664,51.373c-.851-.851-.851-2.227,0-3.075.851-.851,2.227-.851,3.075,0l2.457,2.459,6.426-6.426c.851-.851,2.227-.851,3.075,0,.851.851.851,2.227,0,3.075l-7.962,7.962c-.851.851-2.227.851-3.075,0,0,0-3.996-3.996-3.996-3.996ZM33.047,35.986c-1.202,0-2.175-.973-2.175-2.175s.973-2.175,2.175-2.175h20.634c1.202,0,2.175.973,2.175,2.175s-.973,2.175-2.175,2.175h-20.634ZM11.664,35.333c-.851-.851-.851-2.227,0-3.075.851-.851,2.227-.851,3.075,0l2.457,2.457,6.426-6.423c.851-.851,2.227-.851,3.075,0,.851.851.851,2.227,0,3.075l-7.962,7.962c-.851.851-2.227.851-3.075,0l-3.996-3.996h0ZM18.166,10.758H4.347v71.229h58.185V10.758h-13.819v5.288c0,1.202-.973,2.175-2.175,2.175h-26.197c-1.202,0-2.175-.973-2.175-2.175,0,0,0-5.288,0-5.288ZM44.363,13.871V4.35h-21.848v9.521h21.848Z"></path></g></svg> 