<?xml version="1.0" encoding="UTF-8"?> <svg xmlns="http://www.w3.org/2000/svg" id="_レイヤー_2" width="52.442" height="86.552" viewBox="0 0 52.442 86.552"><defs><style>.cls-1{fill:#f5c136;}</style></defs><g id="_レイヤー_1-2"><path class="cls-1" d="M50.618,46.605c.182-.638.365-1.277.365-1.915v-6.567c0-3.375-2.736-6.111-6.111-6.111-1.368,0-2.554.456-3.648,1.186-1.094-1.459-2.919-2.371-4.834-2.371-1.277,0-2.554.456-3.557,1.094-1.094-1.55-2.919-2.462-4.925-2.462-.821,0-1.642.182-2.28.456v-10.488c0-3.375-2.736-6.111-6.111-6.111s-6.111,2.736-6.111,6.111v23.439c-2.189,1.277-3.831,3.557-4.195,6.293l-1.094,8.3c-.547,4.469.821,8.938,3.739,12.221l7.387,8.3v6.658c0,1.094.821,1.915,1.915,1.915s1.915-.821,1.915-1.915v-7.387c0-.456-.182-.912-.456-1.277l-7.844-8.847c-2.189-2.554-3.283-5.837-2.827-9.212l1.094-8.3c.274-2.371,2.371-4.104,4.834-4.104l9.941.182c1.186,0,2.189,1.003,2.189,2.28,0,.638-.274,1.186-.73,1.642s-1.003.638-1.642.638l-6.931-.274c-1.003-.091-1.824.638-2.006,1.642l-.638,4.378c-.182,1.094.547,2.006,1.642,2.189,1.003.182,2.006-.547,2.189-1.642l.365-2.189c6.749,3.192,6.293,9.85,6.293,10.124-.091,1.094.638,2.006,1.733,2.098h.182c1.003,0,1.824-.73,1.915-1.733.274-2.736-.456-7.205-3.922-10.853,1.277-.182,2.554-.73,3.466-1.642.456-.456.821-.912,1.094-1.459,1.003.638,2.098,1.094,3.375,1.094,2.006,0,3.739-1.003,4.834-2.371,1.003.73,2.28,1.186,3.648,1.186.912,0,1.824-.274,2.645-.638.912,5.472,1.094,11.127,1.094,15.231,0,3.557-1.915,6.84-4.925,8.756l-1.824,1.094c-.547.365-.912,1.003-.912,1.642v7.752c0,1.094.821,1.915,1.915,1.915s1.915-.821,1.915-1.915v-6.658l.912-.547c4.195-2.645,6.658-7.114,6.749-11.948-.091-5.016-.365-12.312-1.824-18.879ZM21.706,41.771l-3.922-.091h-.638v-22.254c0-1.277,1.003-2.28,2.28-2.28s2.28,1.003,2.28,2.28v22.345ZM30.188,42.501c-.73-.365-1.55-.547-2.462-.547h-2.189v-6.293c0-1.277,1.003-2.28,2.28-2.28s2.28,1.003,2.28,2.28v6.84h.091ZM38.67,45.967c0,1.277-1.003,2.28-2.28,2.28s-2.28-1.003-2.28-2.28v-9.029c0-1.277,1.003-2.28,2.28-2.28s2.28,1.003,2.28,2.28v9.029ZM47.061,44.69c0,1.277-1.003,2.28-2.28,2.28s-2.28-1.003-2.28-2.28v-6.567c0-1.277,1.003-2.28,2.28-2.28s2.28,1.003,2.28,2.28v6.567Z"></path><path class="cls-1" d="M19.426,9.029c1.094,0,1.915-.821,1.915-1.915V1.915c0-1.094-.821-1.915-1.915-1.915s-1.915.821-1.915,1.915v5.199c0,1.094.821,1.915,1.915,1.915Z"></path><path class="cls-1" d="M9.394,12.039c.365.365.912.547,1.368.547s1.003-.182,1.368-.547c.73-.73.73-2.006,0-2.736l-3.648-3.648c-.73-.73-2.006-.73-2.736,0s-.73,2.006,0,2.736l3.648,3.648Z"></path><path class="cls-1" d="M9.029,19.426c0-1.094-.821-1.915-1.915-1.915H1.915c-1.094,0-1.915.821-1.915,1.915s.821,1.915,1.915,1.915h5.199c1.094,0,1.915-.912,1.915-1.915Z"></path><path class="cls-1" d="M29.824,19.426c0,1.094.821,1.915,1.915,1.915h5.199c1.094,0,1.915-.821,1.915-1.915s-.821-1.915-1.915-1.915h-5.199c-1.094,0-1.915.821-1.915,1.915Z"></path><path class="cls-1" d="M28.091,12.677c.456,0,1.003-.182,1.368-.547l3.648-3.648c.73-.73.73-2.006,0-2.736s-2.006-.73-2.736,0l-3.648,3.648c-.73.73-.73,2.006,0,2.736.456.365.912.547,1.368.547Z"></path></g></svg> 