<?xml version="1.0" encoding="UTF-8"?> <svg xmlns="http://www.w3.org/2000/svg" id="_レイヤー_2" width="88.088" height="88.088" viewBox="0 0 88.088 88.088"><defs><style>.cls-1{fill:#ff5318;}</style></defs><g id="_レイヤー_1-2"><path class="cls-1" d="M44.045,0C19.758,0,0,19.759,0,44.045s19.758,44.042,44.045,44.042,44.044-19.758,44.044-44.042S68.331,0,44.045,0ZM83.644,44.045c0,21.835-17.764,39.599-39.599,39.599S4.445,65.88,4.445,44.045,22.21,4.445,44.045,4.445s39.599,17.765,39.599,39.6Z"></path><path class="cls-1" d="M44.045,6.435C23.513,6.435,7.003,22.511,6.459,43.035c-.02.754.339,1.461.964,1.892.617.423,1.403.506,2.101.222,6.078-2.491,20.168-7.852,30.633-8.868-3.574,1.332-6.132,4.77-6.132,8.802,0,1.487.357,2.889.974,4.141-3.978-3.255-9.618-4.232-14.805-2.305l-11.126,4.139c-1.079.402-1.669,1.543-1.373,2.654,3.905,14.718,16.195,25.551,31.363,27.603l.196.008c.564,0,1.097-.207,1.495-.58.489-.443.753-1.075.724-1.733-.168-4.032-.643-14.114-1.408-20.625-.233-1.968-.915-3.834-1.981-5.576,1.518,1.052,3.356,1.673,5.339,1.673,1.771,0,3.424-.502,4.839-1.357-2.806,5.546-2.648,16.982-1.93,26.193.049.602.343,1.164.803,1.537.394.327.895.506,1.445.506h.005l.243-.016c15.457-1.966,28.243-13.479,31.817-28.648.248-1.059-.321-2.162-1.325-2.566-4.677-1.917-13.101-5.187-16.985-5.572-4.948-.512-6.984.914-10.229,4.116.46-1.107.717-2.32.717-3.592,0-4.006-2.524-7.426-6.061-8.776,10.828,1.089,25.633,6.462,31.83,8.861.264.104.539.157.816.157.46,0,.902-.14,1.277-.404.611-.429.964-1.13.945-1.878-.538-20.528-17.047-36.608-37.584-36.608ZM76.93,39.787c-8.211-3.031-22.511-7.762-32.561-8.11-9.915-.346-24.781,4.753-33.199,8.029,2.128-16.505,16.089-28.829,32.876-28.829s30.793,12.36,32.885,28.909ZM52.796,54.275l1.138-1.147c3.305-3.334,4.194-4.23,6.556-4.23.4,0,.858.027,1.398.079,3.034.305,10.407,3.128,13.941,4.536-3.486,11.675-13.294,20.625-25.233,23.04-.709-11.697.124-20.204,2.2-22.278ZM48.378,45.082c0,2.733-2.223,4.954-4.955,4.954s-4.954-2.222-4.954-4.954,2.223-4.954,4.954-4.954,4.955,2.222,4.955,4.954ZM36.908,76.432c-11.423-2.498-20.664-10.817-24.344-21.932l9.18-3.416c4.539-1.695,9.55-.278,12.182,3.44.964,1.361,1.544,2.835,1.725,4.382.614,5.215,1.04,12.924,1.258,17.526Z"></path></g></svg> 