<?xml version="1.0" encoding="UTF-8"?> <svg xmlns="http://www.w3.org/2000/svg" id="_レイヤー_2" width="64.381" height="88.447" viewBox="0 0 64.381 88.447"><defs><style>.cls-1{fill:#ff5318;}</style></defs><g id="_レイヤー_1-2"><path class="cls-1" d="M57.76,0h-18.199c-2.631,0-4.974,1.502-5.963,3.811l-3.753,8.105c-.95,1.901-2.863,3.127-4.876,3.127h-.299v-.9c1.55-.002,2.858-1.31,2.858-2.86v-4.06c0-1.524-1.336-2.86-2.86-2.86h-15.041c-1.524,0-2.86,1.337-2.86,2.86v3.911c0,1.522,1.335,2.857,2.858,2.859v1.051h-3.006c-3.65,0-6.62,2.969-6.62,6.619v60.166c0,3.65,2.969,6.619,6.62,6.619h51.141c3.65,0,6.62-2.969,6.62-6.619V6.621C64.381,2.972,61.411.002,57.76,0ZM20.456,14.143v.898h-6.615v-.898h6.615ZM10.983,9.929v-1.351h12.33v1.351h-12.33ZM60.165,6.47v75.358c0,1.326-1.079,2.405-2.405,2.405H6.619c-1.326,0-2.405-1.079-2.405-2.405V21.662c0-1.326,1.079-2.405,2.405-2.405h18.35c3.746,0,7.233-2.263,8.67-5.615l3.767-8.138c.369-.861,1.235-1.439,2.153-1.439h18.2c1.326,0,2.406,1.079,2.406,2.405Z"></path><path class="cls-1" d="M53.248,6.018h-10.829c-1.946,0-3.709,1.107-4.609,2.906l-1.963,4.228c-1.005,2.345-.217,5.061,1.885,6.462,1.531.975,5.232,3.616,6.52,7.051.652,1.957,2.574,3.272,4.784,3.272h4.211c2.869,0,5.116-2.248,5.116-5.116v-13.687c0-2.868-2.247-5.116-5.116-5.116ZM54.15,11.133v13.687c0,.573-.328.902-.902.902h-4.211c-.353,0-.717-.298-.788-.507-1.191-3.25-3.951-6.335-8.176-9.15-.336-.253-.619-.713-.416-1.219l1.909-4.131c.218-.325.496-.484.852-.484h10.829c.573,0,.902.328.902.902Z"></path><path class="cls-1" d="M53.248,34.746H11.133c-1.241,0-2.108.867-2.108,2.108v40.461c0,1.241.867,2.106,2.108,2.106h42.116c1.241,0,2.108-.865,2.108-2.106v-40.461c0-1.013-.806-2.108-2.108-2.108ZM13.24,75.207v-36.246h37.901v36.246H13.24Z"></path><path class="cls-1" d="M30.32,42.259l-.365.594c-5.904,9.563-8.897,16.047-8.897,19.287.159,6.046,5.153,10.965,11.132,10.965,6.055,0,10.982-4.926,10.982-10.981,0-5.733-9.192-19.768-9.277-19.889-.788-1.183-2.756-1.208-3.575.024ZM32.19,68.89c-3.731,0-6.767-3.036-6.767-6.767,0-2.41,3.353-9.23,6.76-14.789,3.354,5.593,6.774,12.359,6.774,14.789,0,3.731-3.036,6.767-6.768,6.767Z"></path></g></svg> 