<?xml version="1.0" encoding="UTF-8"?> <svg xmlns="http://www.w3.org/2000/svg" id="_レイヤー_2" width="96.871" height="87.004" viewBox="0 0 96.871 87.004"><defs><style>.cls-1{fill:#ff5318;}</style></defs><g id="_レイヤー_1-2"><path class="cls-1" d="M35.674,47.072c.069.01.139.013.208.013,1.213,0,2.249-1.31,2.356-3.05.111-1.835-.852-3.454-2.157-3.611-.014-.004-1.268-.251-1.685-1.499-.268-.808-.814-4.116,3.42-12.64,4.405-8.861,5.914-15.645,4.618-20.731-1.073-4.21-3.642-5.321-3.929-5.436-1.222-.476-2.448.518-2.837,2.216-.389,1.704.296,3.562,1.49,4.181.098.052.611.365.843,1.417.296,1.317.485,5.371-4.063,14.526-4.133,8.307-5.382,14.619-3.832,19.292,1.263,3.819,4.095,5.142,5.567,5.321Z"></path><path class="cls-1" d="M48.247,43.543c.069.01.139.013.204.013,1.212,0,2.193-1.32,2.3-3.06.111-1.835-.912-3.461-2.217-3.62-.004-.016-.268-1.502,1.856-5.784,2.717-5.458,3.619-9.753,2.758-13.122-.597-2.336-1.949-3.614-2.925-3.995-1.263-.483-2.702.446-3.054,2.226-.347,1.776.254,3.519,1.513,4.011.005.017.435,1.809-2.17,7.055-2.583,5.187-3.323,9.25-2.273,12.417.856,2.591,2.693,3.698,4.007,3.859Z"></path><path class="cls-1" d="M20.874,43.543c.07.01.139.013.204.013,1.213,0,2.194-1.32,2.3-3.06.111-1.835-.912-3.461-2.217-3.621-.005-.016-.269-1.502,1.856-5.784,2.716-5.458,3.618-9.753,2.758-13.122-.597-2.336-1.948-3.614-2.925-3.995-1.254-.482-2.702.447-3.054,2.226-.347,1.776.254,3.518,1.513,4.011.005.017.435,1.809-2.17,7.055-2.582,5.187-3.323,9.25-2.272,12.417.856,2.591,2.693,3.698,4.007,3.859Z"></path><path class="cls-1" d="M96.038,36.672c-.527-.447-1.208-.648-1.916-.535l-25.142,4.104c-1.054-2.214-3.647-4.689-9.512-6.775-1.241-.426-2.592.208-3.027,1.439-.44,1.233.204,2.587,1.434,3.027,4.85,1.723,7.02,3.746,7.02,4.986,0,.72-.603,1.521-1.685,2.332-.014.009-.026.019-.039.029-3.905,2.895-14.267,5.92-28.355,5.92-13.671,0-23.851-2.848-28.012-5.663-.163-.162-.336-.295-.538-.403-.983-.771-1.529-1.53-1.529-2.216,0-1.284,2.286-3.364,7.39-5.116,1.24-.426,1.897-1.772,1.472-3.01-.426-1.24-1.777-1.9-3.008-1.474C1.837,36.322,0,40.198,0,42.919c0,2.132,1.091,4.011,2.997,5.63l4.842,28.007c0,7.178,13.985,10.447,26.979,10.447s26.979-3.269,26.942-10.04l3.752-21.513,29.624-10.03c1.027-.287,1.735-1.22,1.735-2.284v-4.66c0-.695-.305-1.354-.833-1.804ZM61.105,53.203c-.006.035-.014.068-.018.104l-4.029,23.249c0,1.657-7.793,5.709-22.24,5.709-5.043,0-9.221-.51-12.595-1.24l-3.717-22.076c-.19-1.161-1.319-1.937-2.457-1.749-1.157.197-1.944,1.296-1.745,2.457l3.383,20.09c-3.333-1.221-5.126-2.623-5.141-3.59l-4.205-24.499c6.717,2.827,16.626,4.281,26.477,4.281s19.844-1.469,26.562-4.32l-.274,1.584ZM66.415,50.273l.317-1.818c1.2-1.042,2.033-2.198,2.489-3.451l22.912-3.746-25.717,9.015Z"></path></g></svg> 