<?xml version="1.0" encoding="UTF-8"?> <svg xmlns="http://www.w3.org/2000/svg" id="_レイヤー_2" width="50.586" height="86.744" viewBox="0 0 50.586 86.744"><defs><style>.cls-1{fill:#ff5318;}</style></defs><g id="_レイヤー_1-2"><path class="cls-1" d="M39.234,32.257C28.599,21.138,17.357,1.46,17.256,1.195c-.608-1.059-2.026-1.5-3.241-.971s-1.722,1.765-1.114,2.824c.405.882,11.546,20.384,22.585,31.944,7.393,7.765,10.736,13.413,10.229,17.119-.203,1.412-.912,2.471-2.329,3.441-5.874,3.794-14.483,2.206-19.952.529,3.849-1.059,6.077-1.147,6.077-1.147,1.317-.088,2.431-1.059,2.329-2.206,0-1.147-1.215-2.118-2.532-2.03-.304,0-6.988.265-17.521,5.118-2.127.971-3.95,1.059-5.165.353-1.215-.706-1.823-2.03-1.722-3.618.101-1.147.81-3.971,5.267-5.736,1.215-.529,1.722-1.765,1.215-2.824-.608-1.059-2.026-1.5-3.241-1.059C3.381,44.787.444,48.317.038,52.288c-.304,3.089,1.215,6.001,3.849,7.501.912.529,2.532,1.147,4.558,1.147,1.519,0,3.443-.353,5.57-1.324.912-.441,1.823-.794,2.735-1.147,2.431,1.059,9.824,3.883,17.521,3.883,4.152,0,8.406-.794,11.951-3.177,2.532-1.677,3.95-3.794,4.254-6.354.81-5.206-2.836-11.648-11.242-20.561Z"></path><path class="cls-1" d="M15.129,86.744c.912,0,1.823-.506,2.228-1.418,1.519-3.038,1.519-6.786,0-9.824-.912-1.62-.912-3.646-.101-5.368.608-1.215.101-2.735-1.114-3.241-1.215-.608-2.633-.101-3.241,1.114-1.519,3.038-1.519,6.786,0,9.824.81,1.722.81,3.747,0,5.469-.608,1.215-.101,2.735,1.114,3.241"></path><path class="cls-1" d="M26.776,86.744c.912,0,1.823-.506,2.228-1.418,1.519-3.038,1.519-6.786,0-9.824-.912-1.62-.912-3.646-.101-5.368.608-1.215.101-2.735-1.114-3.241-1.215-.608-2.735-.101-3.241,1.114-1.519,3.038-1.519,6.786,0,9.824.81,1.722.81,3.747,0,5.469-.608,1.215-.101,2.735,1.114,3.241"></path><path class="cls-1" d="M38.423,86.744c.912,0,1.823-.506,2.228-1.418,1.519-3.038,1.519-6.786,0-9.824-.912-1.62-.912-3.646-.101-5.368.608-1.215.101-2.735-1.114-3.241-1.215-.608-2.633-.101-3.241,1.114-1.519,3.038-1.519,6.786,0,9.824.81,1.722.81,3.747,0,5.469-.608,1.215-.101,2.735,1.114,3.241"></path></g></svg> 