<?xml version="1.0" encoding="UTF-8"?> <svg xmlns="http://www.w3.org/2000/svg" id="_レイヤー_2" width="87.846" height="87.848" viewBox="0 0 87.846 87.848"><defs><style>.cls-1{fill:#ff5318;}</style></defs><g id="_レイヤー_1-2"><path class="cls-1" d="M29.167,43.847l-2.361,3.807c-1.642,2.655,2.378,5.098,3.999,2.48l2.361-3.807c1.638-2.651-2.369-5.119-3.999-2.48Z"></path><path class="cls-1" d="M36.638,31.788l-2.361,3.807c-1.638,2.639,2.357,5.131,3.999,2.48l2.361-3.807c1.642-2.647-2.365-5.127-3.999-2.48Z"></path><path class="cls-1" d="M43.502,49.655l2.361-3.807c1.638-2.639-2.357-5.131-3.999-2.48l-2.361,3.807c-1.654,2.668,2.386,5.078,3.999,2.48Z"></path><path class="cls-1" d="M85.493,71.377h-18.163l6.397-7.937c1.949-2.418-1.708-5.38-3.664-2.954l-7.991,9.911-8.117-6.724,5.793-8.885c1.699-2.61-2.243-5.168-3.942-2.57l-2.978,4.571-4.959-.556c1.438-1.201,2.717-2.578,3.722-4.195,1.977-3.191,2.778-6.806,2.586-10.442l31.048,3.628c.094.012.184.016.278.016,2.937,0,3.199-4.347.27-4.69l-32.429-3.787c-1.577-5.209-5.201-10.082-10.495-13.367-5.907-3.656-12.652-4.575-18.456-3.056l-.474-4.972c-.298-3.113-4.976-2.639-4.686.445l.384,4.057-4.016-1.646c-2.884-1.177-4.669,3.17-1.785,4.355l3.342,1.369c-1.495,1.213-2.802,2.668-3.856,4.363-4.682,7.554-2.917,17.505,3.632,24.463l-14.318-1.61c-1.352-.167-2.615.903-2.615,2.337v19.446c0,1.299,1.054,2.353,2.353,2.353h13.212l36.603,12.423c.944.319,1.973.012,2.59-.752l8.783-10.887h21.954c3.113,0,3.113-4.706,0-4.706h-.002ZM47.591,49.554c-1.728,2.782-4.416,4.776-7.77,5.776l-13.844-1.552c-.012-.008-.02-.02-.033-.029-1.16-.601-2.1-1.213-3.056-1.936l6.602-19.372,11.03-4.943c8.232,5.201,11.41,15.054,7.071,22.056h0ZM17.299,30.783c3.403-5.486,10.43-7.57,17.321-5.801l-7.991,3.583c-.592.27-1.054.772-1.262,1.389l-6.205,18.203c-4.142-5.29-5.115-12.134-1.863-17.374h0ZM4.704,56.131l45.248,5.066-6.128,9.396H4.705v-14.462ZM52.121,82.737l-21.921-7.439h14.899c.797,0,1.536-.4,1.973-1.066l4.298-6.589,7.75,6.422-6.998,8.673Z"></path><path class="cls-1" d="M62.453,33.638c-5.883,0-10.491-3.403-10.491-7.745s4.608-7.745,10.491-7.745,10.491,3.403,10.491,7.745-4.608,7.745-10.491,7.745ZM62.453,22.853c-3.309,0-5.785,1.606-5.785,3.039s2.476,3.039,5.785,3.039,5.785-1.606,5.785-3.039-2.476-3.039-5.785-3.039Z"></path><path class="cls-1" d="M74.774,17.378c-7.329,0-13.073-3.816-13.073-8.689S67.445,0,74.774,0s13.073,3.816,13.073,8.689-5.74,8.689-13.073,8.689ZM74.774,4.706c-4.714,0-8.366,2.141-8.366,3.983s3.656,3.983,8.366,3.983,8.366-2.141,8.366-3.983-3.652-3.983-8.366-3.983Z"></path></g></svg> 