<svg xmlns="http://www.w3.org/2000/svg" width="122.469" height="122.47" viewBox="0 0 122.469 122.47">
  <defs>
    <style>
      .cls-1 {
        fill: #6cab49;
        fill-rule: evenodd;
      }
    </style>
  </defs>
  <path id="icon2.svg" class="cls-1" d="M795.224,6717.92a61.23,61.23,0,1,0,61.234,61.23A61.229,61.229,0,0,0,795.224,6717.92ZM828.2,6820.2a52.6,52.6,0,0,1-65.952,0,7.137,7.137,0,0,1,.462-11.39l14.178-9.88a7.6,7.6,0,0,1,4.352-1.36h27.968a7.6,7.6,0,0,1,4.352,1.36l14.178,9.88A7.137,7.137,0,0,1,828.2,6820.2Zm7.5-25.91a7.654,7.654,0,0,1-3.032-4.4l-5.3-21.19A11.733,11.733,0,0,0,816,6759.81H774.452a11.733,11.733,0,0,0-11.375,8.89l-5.3,21.19a7.654,7.654,0,0,1-3.032,4.4h0a7.14,7.14,0,0,1-11.071-4.3,52.671,52.671,0,1,1,103.1-.01A7.141,7.141,0,0,1,835.7,6794.29Z" transform="translate(-734 -6717.91)"/>
</svg>
