<svg xmlns="http://www.w3.org/2000/svg" width="178.313" height="118.12" viewBox="0 0 178.313 118.12">
  <defs>
    <style>
      .cls-1 {
        fill: #6cab49;
        fill-rule: evenodd;
      }
    </style>
  </defs>
  <path id="icon1.svg" class="cls-1" d="M419.232,6828.3c0-2.29.083-3.79,0.1-5.62,0.01-.86-0.257-2.04-0.183-3.34,6.484,0.39,11.663-1.53,13.5-8.02,2.145-7.55-.971-12.86-8.134-15.62a14.531,14.531,0,0,0,2.065-8.61c-0.167-4.98.627-9.98,0.661-14.96,0.021-2.94-.25-2.89,2.751-2.92,4.335-.03,8.669-0.24,13-0.24,4.512-.01,4.708.03,4.718-4.31,0.011-5.64.071-11.27,0.081-16.91,0-1.06-.173-2.31-0.173-3.74a55.1,55.1,0,0,0-13.128.77,13.063,13.063,0,0,0-6.182,3.48c-1.18,1.06-2.264,2.59-3.5,3.77-2.3-1.3-3.371-4.24-5.721-5.54,0.395-.96,1.654-1.57,2.373-2.17,4.7-3.95,9.307-8.12,15.319-9.6,0.933-.23,2.081.55,3.05,0.54,6.123,0,12.247.37,18.37,0.37s12.248-.71,18.37-0.62c4.662,0.08,8.7,2.25,12.465,5.11,5.577,4.25,11.238,8.37,16.622,12.86,4.407,3.67,8.585,7.6,12.933,11.34,1.416,1.22,3.624.64,5.128,1.07,6.053,1.73,11.954,3.93,17.985,5.72,3.286,0.97,6.633,2.17,9.066,5.16,1.351,1.66,2.713,3.21,2.7,5.4-0.042,5.96-.773,11.92-0.692,17.88,0.023,1.64-.064,3.02-1.1,4.15a43.937,43.937,0,0,0-4.1,5.27c-0.991,1.48-2.863,1.7-4.577,1.61-1.729-.09-2.943.36-3.468,2.3-1.585,5.88-4.428,10.97-9.924,13.91a16.245,16.245,0,0,1-6.8,1.42c-5.309.35-10.818,1.42-15.537-1.7-4.552-3-6.7-7.77-8.257-12.93-0.792-2.63-1.672-3.14-4.531-3.16-5.961-.03-11.924.59-17.885,0.59-9.754,0-19.508-.43-29.263-0.42-3.873,0-3.645.15-4.993,3.92-2.077,5.81-5.63,10.69-11.388,13.34C427.273,6829.55,423.514,6828.67,419.232,6828.3Zm36.792-59.73c0.7,0.7,2.215.72,3.276,0.73,2.926,0.03,5.856-.62,8.782-0.63,11.057,0,22.111-.14,33.167-0.19,1.346,0,3.245.8,3.856-.98,0.6-1.74-.866-2.71-2.056-3.78-6.571-5.86-12.974-11.93-19.773-17.52a11,11,0,0,0-7.344-2.42c-5.635.09-11.269,0.26-16.906,0.27a11.718,11.718,0,0,0-1.651-.18,1.872,1.872,0,0,0-1.72,2.26C456.988,6753.53,455.869,6760.96,456.024,6768.57Zm51.054,39.24c-0.68,6.2,6.787,12.12,11.834,12.18,6,0.08,11.716-6.36,11.725-12.05,0.009-5.81-5.811-11.47-11.616-11.42C513.747,6796.56,506.353,6801.97,507.078,6807.81Zm-93.9-12.37a7.822,7.822,0,0,0-.975,3.57c-0.025,10.29-.213,20.58-0.222,30.87-0.006,5.2-3.8,7.97-8.012,7.32-2.8-.44-5.074-1.56-6-4.63-1.219.69-1.642,2.29-2.435,3.13-2.246,2.36-5.385,2.58-8.253,1.41a6.506,6.506,0,0,1-4.445-6.75c0.123-10.51-.49-21.02-0.511-31.53,0-1.17.574-2.48,0.053-3.57a4.311,4.311,0,0,0-2.228-1.04c-3.723-.75-4.909-2.09-4.918-5.92-0.023-9.2.216-18.43-.088-27.63-0.22-6.66,5.555-12.81,12-12.68,6.714,0.12,13.437-.2,20.151-0.07,6.4,0.12,10.32,3.09,12.4,9.28,0.715,2.13.258,4.29,0.26,6.44,0.007,7.8.775,15.59,1,23.38,0.123,4.25-2.68,7.12-7.524,7.44C413.238,6794.47,413.422,6795.31,413.181,6795.44Zm-15.539-75.76c7.23,0.01,12.252,4.61,12.64,11.69,0.391,7.13-6.881,12.79-12.569,12.83-6.082.05-13.457-5.85-13.042-12.94C385.082,6724.23,390.38,6719.67,397.642,6719.68Z" transform="translate(-375.156 -6719.69)"/>
</svg>
