<svg xmlns="http://www.w3.org/2000/svg" width="175.22" height="104.16" viewBox="0 0 175.22 104.16">
  <defs>
    <style>
      .cls-1 {
        fill: #6cab49;
        fill-rule: evenodd;
      }
    </style>
  </defs>
  <path id="icon4.svg" class="cls-1" d="M1513.16,6814.09a0.8,0.8,0,0,1,.2.57,3.191,3.191,0,0,1,1.19-.1h24.12c0.36,0,.73-0.03,1.1-0.05a15.718,15.718,0,0,0,.87-5.14c0.1-2.03-.23-4.04-0.04-6.07a14.9,14.9,0,0,0,.06-2.01,43.584,43.584,0,0,1-.12-5.71c0.31-3.81.01-7.62,0.11-11.43,0.07-2.84.01-5.7-.1-8.55-0.13-3.55.09-7.12,0.05-10.68-0.03-1.99-.12-4-0.02-5.97,0.15-3.14-.04-6.26.08-9.39,0.1-2.73-.18-5.47-0.12-8.2,0.05-1.91.09-3.81,0.06-5.72a8.42,8.42,0,0,0-.67-4.04,8.142,8.142,0,0,0-6.8-4.28c-3.86-.39-7.74-0.07-11.61-0.18-2.92-.08-5.85.11-8.77,0.04-2.98-.07-5.96.06-8.95-0.03-3.68-.1-7.36.03-11.05,0.05-4.02.01-8.04,0-12.06,0-4.48,0-8.97.01-13.46-.01-3.22,0-6.45-.14-9.68-0.04-3.44.11-6.88-.01-10.33,0.07-2.96.07-5.95,0.15-8.93-.02-3.44-.21-6.87.06-10.31,0.01-3.35-.05-6.7.01-10.05-0.02a45.167,45.167,0,0,0-7.26.45,26.072,26.072,0,0,0-11.17,4.53,24.991,24.991,0,0,0-6.62,6.97,37.749,37.749,0,0,0-4.35,10.11,5.85,5.85,0,0,0-.17,1.72,1.761,1.761,0,0,0,1.68,1.83,19.078,19.078,0,0,0,2.39.18c3.72-.01,7.45-0.12,11.17-0.05,4.55,0.09,9.1.03,13.65,0.05,4.22,0.02,8.45-.02,12.67.02a7.72,7.72,0,0,1,5.57,2.03,8.175,8.175,0,0,1,2.21,6.07c0.05,4.42-.05,8.84-0.05,13.27,0,4.64.13,9.28,0.05,13.91-0.07,3.72.02,7.43-.03,11.14-0.06,4.03.04,8.05,0.04,12.07a12.7,12.7,0,0,0,.12,3.02c1.75,0.1,3.5.01,5.26,0.01,3.32-.01,6.65.04,9.97,0.04,6.49-.01,12.98-0.07,19.47-0.03,3.69,0.02,7.37-.02,11.06-0.04l0.12-.36h3.55c-1.86,6.58-.48,12.01,5.61,15.51a11.068,11.068,0,0,0,12.14-.42c5.63-3.66,6.79-8.89,4.9-15.13h3.25Zm-84.27-68.15c0.05,0.77-.67,1-1.2,1.31a1.11,1.11,0,0,1-.63.1c-2.36-.2-4.73.18-7.09-0.06a20.55,20.55,0,0,0-3.04.08c-2.65.12-5.29-.19-7.94-0.01a1.564,1.564,0,0,1-1.42-1.5c-0.02-.52,0-1.04,0-1.57h-0.08v-5.9a1.758,1.758,0,0,1,1.6-1.77c1.66-.05,3.32.01,4.97,0q6.525-.03,13.04-0.07a1.773,1.773,0,0,1,1.78,1.76C1429.07,6740.85,1428.7,6743.39,1428.89,6745.94Zm42.66,41.01a0.775,0.775,0,0,1-.93-0.85c0.07-1.68.21-3.36,0.13-5.04-0.02-.5.38-0.57,0.78-0.54,0.49,0.03.91,0.13,0.9,0.77-0.02.8-.01,1.59-0.01,2.39h0.01c0,0.8-.01,1.59,0,2.39A0.746,0.746,0,0,1,1471.55,6786.95Zm1.07-12.99c0,0.71-.23.92-0.98,0.9-1.9-.03-3.8-0.15-5.7,0-1,.08-2.02-0.06-3.03-0.07-3.08-.01-6.15,0-9.22,0-0.31,0-.62-0.06-0.92-0.04-0.83.04-1.01-.38-1-1.14,0.03-3.65.04-7.31,0-10.96a0.9,0.9,0,0,1,1.13-1.1c0.86,0.05,1.73.01,2.59,0.01,3.77,0.08,7.55.01,11.32,0.05,1.56,0.01,3.13.01,4.69-.04,1.15-.03,1.23.07,1.22,1.18C1472.69,6766.49,1472.64,6770.22,1472.62,6773.96Zm4.79,16.22c0.11,2.66.1,5.33,0.09,7.98-0.02,3.35-.01,6.7-0.07,10.05-0.03,1.22-.02,2.45,0,3.67,0.01,0.48-.08.95-0.62,0.95a0.757,0.757,0,0,1-.65-0.94c0.01-3.25-.09-6.49.05-9.73,0.06-1.36-.02-2.69-0.05-4.04-0.07-2.42.18-4.83,0.07-7.27a26.02,26.02,0,0,1,.05-4.75,38.148,38.148,0,0,0-.13-4.13c0.06-2.39-.07-4.79.04-7.17,0.1-2.27-.02-4.53.07-6.79,0.14-3.24-.06-6.49-0.11-9.74-0.01-.43-0.05-0.86-0.02-1.29,0.22-2.82-1.1-3.62-3.55-3.59-1.86.02-3.73,0-5.59,0.09-2.52.12-5.03-.13-7.56-0.01-2.19.11-4.4-.09-6.6-0.1a19.975,19.975,0,0,0-2.67.19,1.866,1.866,0,0,0-1.67,1.48,10.359,10.359,0,0,0-.19,4.29,16.412,16.412,0,0,1-.11,1.74c0.16,2.66-.12,5.32.12,7.98,0.11,1.22-.1,2.45-0.11,3.68-0.02,3.8.01,7.59-.02,11.39-0.01,1.94.01,3.88,0.13,5.82,0.08,1.13-.09,2.27-0.11,3.4-0.03,1.75.21,3.49,0.15,5.25-0.09,2.23-.23,4.47-0.12,6.69,0.1,2.12-.16,4.23-0.04,6.35a2.2,2.2,0,0,1-.09.81,0.516,0.516,0,0,1-1.01-.03,2.853,2.853,0,0,1-.14-0.63c0.02-1.49.08-2.98,0.1-4.48,0.02-1.13-.03-2.25-0.03-3.38,0.02-3.19.06-6.37-.03-9.56-0.06-2.31.1-4.64,0.02-6.94-0.1-2.71.18-5.4,0.09-8.1-0.09-2.53,0-5.07-.02-7.61-0.02-1.34-.19-2.68-0.12-4.01,0.18-3.99-.23-7.98.13-11.96a3.9,3.9,0,0,1,4.66-3.55,23.25,23.25,0,0,0,3.01.01c3.21,0.07,6.43-.08,9.64-0.09,2.45,0,4.9.09,7.36,0.14a14.476,14.476,0,0,1,2.47-.05,3.775,3.775,0,0,1,3.19,3.81c0.03,0.77,0,1.54,0,2.31,0.16,2.82.09,5.64,0.06,8.45-0.05,4.89,0,9.78-.05,14.67C1477.4,6784.35,1477.3,6787.27,1477.41,6790.18Zm8.59-34.41c-0.01-2.05,1.16-3.3,3.42-2.98a4.592,4.592,0,0,0,.83.01c3.62-.11,7.24-0.09,10.86-0.02,3.1,0.06,6.21-.16,9.3-0.05,2.49,0.09,4.96-.04,7.44.05,2.54,0.08,5.09-.06,7.64-0.08a3.816,3.816,0,0,1,2.27.61,2.9,2.9,0,0,1,1.09,2.69c-0.01,4.55-.05,9.1-0.07,13.64-0.01,1.29.01,2.58,0,3.87-0.03,2.23-.85,3.01-3.08,3.06-3.48.08-6.96,0.04-10.44,0-4.02-.05-8.05-0.04-12.08,0-3.9.03-7.81,0.13-11.71,0-0.8-.03-1.6.06-2.4,0.06a2.7,2.7,0,0,1-3.05-2.89c-0.03-1.09-.03-2.18-0.03-3.27s0.02-2.18.02-3.28C1486.01,6763.38,1486.02,6759.57,1486,6755.77Zm12.44,51.63a14.234,14.234,0,0,0-6.09,1.58c-0.25.11-.56,0.59-0.83,0.07-0.19-.38.12-0.6,0.43-0.79a12.574,12.574,0,0,1,10.53-1.35,1.663,1.663,0,0,1,1.28.81c-0.15.54-.55,0.41-0.88,0.28A13.611,13.611,0,0,0,1498.44,6807.4Zm4.98,17.31a7.48,7.48,0,0,1-11.62-2.7,7.233,7.233,0,0,1,1.31-8.19,6.1,6.1,0,0,1,5.03-2.27h1.3c3.45,0.33,5.51,2.31,6.39,5.55C1506.66,6820.11,1505.7,6822.61,1503.42,6824.71Zm-82.37-10.57c0.83,0,1.67-.01,2.5-0.01,0.07,0.16.13,0.33,0.2,0.49,1.9-.19,3.8-0.05,5.7-0.06,0.37,0,.74-0.04,1.1-0.07,0-1.13-.01-2.26-0.01-3.39,0-5.97.01-11.94-.01-17.91,0-.82.11-1.64,0.04-2.48a46.746,46.746,0,0,1-.08-4.88c0.07-2.37.08-4.73,0.08-7.1,0.01-3.53-.11-7.06.05-10.59a15.613,15.613,0,0,0-.49-4.47c-0.43-1.73-2.34-2.92-4.54-2.92q-8.22-.015-16.44,0c-2.9.01-5.79-.01-8.68,0.05-3.35.07-6.71-.14-10.06-0.02a8.955,8.955,0,0,0-7.18,3.57,47.167,47.167,0,0,0-2.55,4.27c-1.59,2.62-3.22,5.23-4.68,7.93-1,1.82-2.04,3.64-3.14,5.4a42.562,42.562,0,0,0-4.57,10.22c-0.63,2.07-.38,4.2-0.43,6.31-0.06,3.03.16,6.07,0,9.1-0.13,2.42.22,4.84-.05,7.26,3.04-.53,6.11-0.25,9.16-0.27,5.66-.04,11.31-0.01,16.96-0.01a5.136,5.136,0,0,0,.55-0.06c0.06-.13.13-0.26,0.2-0.39h3.29c-0.15.49-.26,0.83-0.35,1.19a11.551,11.551,0,0,0-.24,1.17,12.07,12.07,0,0,0,3.23,10.99,11.569,11.569,0,0,0,6.66,3.46,11.89,11.89,0,0,0,9.47-2.33,12.132,12.132,0,0,0,3.77-4.91,12.746,12.746,0,0,0,.2-9.08C1420.57,6814.17,1420.7,6814.14,1421.05,6814.14Zm-18.2-5.17c-0.28.14-.66,0.5-0.89,0.14-0.25-.39.21-0.65,0.51-0.83a12.991,12.991,0,0,1,5.32-1.9c0.42-.05.85-0.07,1.31-0.11a11.132,11.132,0,0,1,4.42,1c0.25,0.13.72,0.19,0.56,0.58s-0.56.24-.89,0.14a13.713,13.713,0,0,0-7.62-.12A13.03,13.03,0,0,0,1402.85,6808.97Zm3.33-14.77c-1.07-.05-2.15-0.01-3.22-0.01v-0.04c-1.17,0-2.34,0-3.51-.01a0.859,0.859,0,0,1-1-1,0.846,0.846,0,0,1,1.03-.95q3.36,0,6.72-.04c0.7-.01,1.11.15,1.09,0.97A0.922,0.922,0,0,1,1406.18,6794.2Zm-11.73-5.76c-2.35,0-4.7,0-7.05.04-2.67.04-5.32-.06-7.99-0.02-0.96.01-1.07-.13-0.63-1.01,1.44-2.91,2.92-5.8,4.39-8.7,1.76-3.47,3.54-6.93,5.29-10.41a1.184,1.184,0,0,1,1.3-.76c3.25,0.22,6.51.02,9.77,0.05,2.21,0.02,4.41.03,6.62,0.01,0.79,0,1.16.22,1.09,1.05-0.31,3.47.12,6.94-.01,10.41-0.12,2.82,0,5.63.01,8.45a0.77,0.77,0,0,1-.93.92c-0.8-.02-1.6-0.02-2.4-0.02s-1.61.01-2.41,0.01Q1397.975,6788.46,1394.45,6788.44Zm14.9,37.99a7.48,7.48,0,1,1,7.46-7.45A7.488,7.488,0,0,1,1409.35,6826.43Zm74.24-11.02c-3.69.02-7.37,0.06-11.06,0.03-6.49-.04-12.98.03-19.47,0.03-3.32.01-6.65-.05-9.97-0.04-1.76.01-3.51,0.1-5.26,0a0.761,0.761,0,0,0-.75.93,15.289,15.289,0,0,1-.03,2.95c-0.14.96,0.25,1.12,1.04,1.11,2.08-.03,4.17-0.05,6.25-0.02,5.86,0.07,11.73-.08,17.6.16,2.57,0.1,5.15-.26,7.74-0.15a10.335,10.335,0,0,0,1.46.1c3.1-.24,6.2.01,9.3-0.09a16.738,16.738,0,0,0,2.92.02,0.736,0.736,0,0,0,.73-0.84q-0.03-1.71,0-3.42A0.673,0.673,0,0,0,1483.59,6815.41Zm56.18,0.02c-0.37.02-.74,0.04-1.1,0.04q-12.06.015-24.12,0.01a3,3,0,0,0-1.19.1c-0.45,1.25-.1,2.55-0.2,3.83a0.858,0.858,0,0,0,1.06,1.01c5.62,0.04,11.23-.07,16.85.11,1.77,0.06,3.57-.2,5.34-0.09,1.32,0.09,2.62-.08,3.93-0.03a1.646,1.646,0,0,0,1.73-.96A2.642,2.642,0,0,0,1539.77,6815.43Zm-145.84.04c-5.65.01-11.3-.02-16.96,0.02-3.05.02-6.12-.26-9.16,0.26a5.319,5.319,0,0,0-.56,1.73c-0.26,1.86.5,2.76,2.31,2.96a20.871,20.871,0,0,0,2.74-.01c4.58-.05,9.16-0.02,13.74-0.02h7.66c0.47,0.01.97-.08,0.96-0.61a14.383,14.383,0,0,0-.18-4.39A5.136,5.136,0,0,1,1393.93,6815.47Zm36.62-.06c-0.36.02-.73,0.06-1.1,0.06-1.9.01-3.8-.12-5.7,0.06a13.84,13.84,0,0,0-.29,3.01c-0.23,1.76-.04,1.88,1.73,1.85,0.19,0,.37.03,0.56,0.02,1.5-.1,2.99.36,4.5,0.01,0.35-.08.72-0.09,0.72-0.53a11.038,11.038,0,0,0,.14-2.74C1430.97,6816.57,1431.3,6815.8,1430.55,6815.41Z" transform="translate(-1367.22 -6727.09)"/>
</svg>
