<svg xmlns="http://www.w3.org/2000/svg" width="127.5" height="114.62" viewBox="0 0 127.5 114.62">
  <defs>
    <style>
      .cls-1 {
        fill: #6cab49;
        fill-rule: evenodd;
      }
    </style>
  </defs>
  <path id="icon3.svg" class="cls-1" d="M1124.26,6743.12l16.44,27.38,16.39,27.42,15.45,27.75-31.84.74-32.01-.15-31.8-.61,16-27.39,15.57-27.89,16.71-27.23m-0.91-21.14-15.63,27.99-15.68,27.95-16.62,27.42-15.34,28.16,1.11,2.07,31.3,0.74,31.29-.01,31.3-.5,31.3,0.81,1.21-3.16-16.1-27.72-15.46-28.08-15.96-27.8-16.47-27.51Zm-7.06,44.47,14.61,0.09-5.73,35.92-2.97.05Zm1.26,46.28,6.23-5.74,6.21,5.74-6.21,6.39Z" transform="translate(-1061 -6722)"/>
</svg>
